<svg width="56" height="59" viewBox="0 0 56 59" fill="none" xmlns="http://www.w3.org/2000/svg">
<path d="M53.6834 29.3697C54.0984 29.2827 53.7244 29.2697 53.3234 29.2627C53.9061 29.2013 54.5028 29.1403 55.1134 29.0797C41.6524 27.7327 35.5264 26.5367 32.3344 20.7097C32.3664 20.7657 32.3974 20.8247 32.4344 20.8757L32.4454 20.8427C32.2644 20.5257 32.1314 20.2967 32.2454 20.5427C32.0954 20.2613 31.9531 19.9697 31.8184 19.6677C31.9554 19.9187 32.0184 19.9477 32.0264 19.8487C32.017 19.6424 31.9835 19.438 31.9264 19.2397C31.9134 19.2337 31.9014 19.2327 31.8604 19.1587C31.8394 19.1217 31.8094 19.0677 31.7674 18.9847C31.7254 18.9017 31.6814 18.7847 31.6134 18.6407C31.6564 18.8637 32.1134 19.9887 31.8574 19.4997C31.7664 19.2997 31.7054 19.1627 31.6574 19.0587C31.6265 18.9822 31.5998 18.9041 31.5774 18.8247C31.5424 18.7087 31.5334 18.6427 31.4714 18.4437C31.5044 18.6187 31.3904 18.3677 31.2714 18.0957C31.2077 17.9283 31.129 17.767 31.0364 17.6137C30.5231 15.9528 30.1271 14.258 29.8514 12.5417C29.8634 12.5727 29.8704 12.5677 29.8664 12.5017L29.7794 12.0267C29.7574 11.5827 29.9974 12.9137 29.9214 12.3077C30.0644 12.9407 30.2454 13.6457 30.4084 14.5407L30.3724 14.7207C30.3445 14.4376 30.2933 14.1573 30.2194 13.8827C30.2694 14.0667 30.3194 14.4117 30.3774 14.7617C30.4177 15.0676 30.4952 15.3675 30.6084 15.6547C30.5704 15.4447 30.5424 15.2337 30.5084 15.0237C30.6864 15.6517 30.9554 16.4137 31.1704 17.1897C31.1374 16.8217 31.1034 17.0147 31.0324 16.4447C31.0394 16.5697 31.0104 16.5077 30.9634 16.3577C30.9164 16.2077 30.8504 15.9677 30.7964 15.7357C30.6764 15.2727 30.5884 14.8427 30.6204 15.2407C30.5982 14.9667 30.5605 14.6943 30.5074 14.4247C30.4464 14.1109 30.4021 13.7941 30.3744 13.4757C30.3574 13.5017 30.3744 13.7497 30.2674 13.0837C30.2554 13.0547 30.2344 12.9837 30.2204 12.9407C30.2204 12.9197 30.2204 12.9127 30.2144 12.8957V12.9327C30.2064 12.9047 30.2034 12.9017 30.2144 12.9467C30.2297 13.0607 30.2378 13.1756 30.2384 13.2907C30.1562 13.0088 30.0895 12.7227 30.0384 12.4337C29.9714 12.0837 29.9044 11.7337 29.8644 11.5507C29.8144 11.1507 29.9164 11.7137 29.9084 11.4937L29.7834 10.9617C29.8284 10.9017 29.7204 9.89566 29.8834 10.8277L29.7664 9.98566C29.7284 9.48566 29.6544 8.80166 29.5804 8.38566C29.5444 7.98566 29.4044 7.38566 29.4854 7.72766L29.3054 6.40466L29.3174 6.39166C29.1844 5.08166 28.9584 3.70066 28.9174 2.19166C28.8644 1.75066 28.8074 1.29166 28.7594 0.55466L28.7924 0.40766C28.7814 0.30766 28.7724 0.20066 28.7624 0.0766602H28.1084C28.0534 0.66966 27.9474 1.48766 27.9684 1.69366C27.7944 2.29366 27.6944 4.44366 27.5684 5.43766L27.6244 5.47966C27.5514 6.16466 27.4994 6.82366 27.4244 7.67966L27.4844 7.63266C27.4434 8.36966 27.2234 9.51266 27.0634 10.6667C27.0727 10.4717 27.0991 10.278 27.1424 10.0877C26.8344 11.4527 26.7924 13.0067 26.4474 14.2317C26.4123 14.484 26.3581 14.7334 26.2854 14.9777C26.2924 14.9487 26.2964 14.9237 26.3004 14.9017C26.2934 14.9327 26.2814 14.9797 26.2694 15.0277L26.1444 15.4487C26.1874 15.3227 26.2244 15.2017 26.2544 15.0957C26.2014 15.3327 26.1234 15.6957 26.0464 16.0447L25.9514 16.1817C25.9434 16.2097 25.9374 16.2327 25.9304 16.2617C25.8174 16.5997 25.8814 16.5427 25.9724 16.3687C25.9324 16.5457 25.9034 16.7097 25.8784 16.8367C25.7104 17.0927 25.6354 17.7547 25.4044 18.0997C25.3796 18.2268 25.3462 18.3521 25.3044 18.4747C25.2434 18.6487 25.1714 18.8627 25.0924 19.0747C24.9604 19.4327 24.8174 19.7807 24.7804 19.9437C24.6904 20.1237 24.5904 20.2977 24.5014 20.4727C24.4124 20.6477 24.3154 20.8177 24.2384 20.9837L24.0834 21.1017C23.9604 21.3707 23.8214 21.6337 23.6784 21.8967C23.5686 22.0376 23.4472 22.169 23.3154 22.2897C23.2614 22.3237 23.3024 22.2557 23.4374 22.0227C23.2284 22.3491 22.9968 22.6605 22.7444 22.9547C22.5784 23.1347 22.4444 23.3037 22.0444 23.7147L22.0534 23.6487C21.7434 23.9584 21.4049 24.2383 21.0424 24.4847C20.8424 24.6047 20.4954 24.8177 20.0484 25.0737C19.5164 25.3675 18.9689 25.6326 18.4084 25.8677C17.7549 26.1407 17.0873 26.3787 16.4084 26.5807C15.7214 26.7857 15.0374 26.9497 14.4304 27.0747C14.6824 27.0797 14.3974 27.1317 14.0404 27.1947C13.7593 27.2217 13.4828 27.2842 13.2174 27.3807C13.0684 27.3807 12.7244 27.4307 13.1174 27.3287C11.8804 27.6007 11.2324 27.6287 10.3804 27.8437C10.2304 27.8377 10.6414 27.7597 10.5084 27.7627C10.3349 27.8055 10.1584 27.8352 9.98042 27.8517C9.84842 27.8517 10.1604 27.8017 10.3564 27.7567C9.07142 27.9567 8.95642 28.0567 8.87542 28.1517C8.38524 28.1765 7.89845 28.2472 7.42142 28.3627C7.18942 28.3627 6.80342 28.3827 7.60742 28.2737L6.04542 28.4487C5.62491 28.4791 5.20715 28.5399 4.79542 28.6307C4.65042 28.6307 4.16042 28.6937 4.04142 28.7147C3.02142 28.8147 2.93142 28.8217 1.93042 28.9287L2.20942 28.9117C2.14083 28.9331 2.07104 28.9504 2.00042 28.9637L1.79242 28.9327V28.9957H1.76242L0.904419 29.0957L1.76242 29.1717H1.79242V29.2357L2.17042 29.2157C2.38942 29.2427 2.63942 29.2757 2.94642 29.3037L2.92342 29.3097C4.76542 29.5617 3.72342 29.3627 5.54142 29.6307L5.44942 29.5697C5.63542 29.4797 7.05542 29.8167 8.11642 29.9137L7.73942 29.8357C8.32342 29.8727 9.32642 30.1927 9.89742 30.2947C10.0224 30.3227 9.69742 30.2807 9.52042 30.2617C10.2674 30.4027 10.3204 30.3967 10.3204 30.3707C10.3204 30.3447 10.2864 30.3017 10.8484 30.3817C11.0484 30.4507 10.5654 30.4247 11.3154 30.5577C11.5004 30.6027 12.0504 30.6667 12.6784 30.7577C13.2952 30.8431 13.9056 30.9697 14.5054 31.1367C14.2924 31.0597 14.0784 30.9827 14.5954 31.0797C14.7954 31.1267 15.0174 31.1877 15.2604 31.2567C15.5034 31.3257 15.7604 31.4067 16.0064 31.4907L16.7364 31.7267C16.9664 31.7967 17.1764 31.8607 17.3544 31.8997C17.4454 31.9407 17.4794 31.9597 17.4804 31.9677C17.6264 32.0117 17.8114 32.0817 18.0184 32.1537C18.2254 32.2257 18.4434 32.3177 18.6584 32.4007C18.8734 32.4837 19.0764 32.5727 19.2474 32.6507C19.4184 32.7287 19.5604 32.7857 19.6474 32.8177C19.8552 32.9886 20.0781 33.1402 20.3134 33.2707C20.6294 33.4617 20.9994 33.7007 21.3444 33.9437C22.0294 34.4337 22.5814 34.9667 22.5054 35.0167C22.9142 35.432 23.2891 35.8794 23.6264 36.3547L23.5844 36.3267C23.8954 36.7837 24.0934 37.0997 24.2464 37.3407C24.3224 37.4617 24.3894 37.5627 24.4464 37.6537C24.5034 37.7447 24.5584 37.8277 24.6134 37.9107C24.7134 38.1427 24.6134 37.9827 24.5984 37.9677C24.6874 38.1477 24.7564 38.3107 24.8214 38.4577C24.8864 38.6047 24.9414 38.7347 24.9904 38.8577C25.0394 38.9807 25.0854 39.0867 25.1284 39.1897C25.1714 39.2927 25.2074 39.3897 25.2464 39.4837C25.4014 39.8597 25.5464 40.2057 25.7954 40.8327L25.7774 40.9797C25.8371 41.1486 25.8881 41.3205 25.9304 41.4947C25.9924 41.7447 26.0714 42.0597 26.1464 42.4137C26.3054 43.1207 26.4774 43.9767 26.6514 44.7377C26.624 44.6862 26.6044 44.6309 26.5934 44.5737C26.7885 45.4987 26.935 46.4333 27.0324 47.3737C27.0753 48.0436 27.1913 48.7069 27.3784 49.3517L27.5664 50.4967C27.4104 49.0067 27.6844 50.7097 27.6484 50.0967C27.7314 50.6807 27.7544 51.6167 27.6654 50.8967V50.7827C27.5944 50.6557 27.6354 51.1187 27.6834 51.6097C27.7363 51.9379 27.7567 52.2705 27.7444 52.6027C27.9204 54.3027 28.0514 55.9867 28.1754 57.6337C28.1561 57.7703 28.1378 57.907 28.1204 58.0437H28.1314C28.1614 57.8987 28.1724 58.0987 28.2034 58.0167V58.0797H28.6614V58.0437C28.6784 57.8787 28.6924 57.7147 28.7094 57.5497C28.7324 57.8437 28.7384 57.9877 28.7354 58.0437H28.7464C28.7384 57.8677 28.7294 57.6917 28.7134 57.5157C28.7928 56.6697 28.8721 55.8347 28.9514 55.0107L28.8374 55.3207L28.9314 54.3627C28.9754 54.1127 29.0314 54.0297 28.9614 54.7137C29.0225 54.3265 29.0403 53.9338 29.0144 53.5427C29.1814 52.2067 29.0624 54.0737 29.1054 53.6627L29.1544 53.1047L29.1324 53.2297C29.1212 52.789 29.143 52.3481 29.1974 51.9107C29.2694 51.3927 29.2794 51.6487 29.3034 51.4447C29.3034 51.4447 29.3104 51.4287 29.3174 51.3817C29.3244 51.3347 29.3304 51.2547 29.3414 51.1317L29.4864 49.9317L29.3624 50.4067C29.3904 49.8697 29.5024 49.2737 29.3564 49.8227C29.4674 49.4227 29.6124 48.2987 29.7734 47.2227C29.9344 46.1467 30.1104 45.1057 30.1734 44.8597C30.2782 44.0596 30.4339 43.267 30.6394 42.4867C30.5704 42.7067 30.4614 42.8267 30.6634 42.0547C30.7044 42.2117 30.8144 41.8617 30.9544 41.4007C31.079 40.9657 31.2364 40.5408 31.4254 40.1297C31.3904 40.1877 31.4044 40.1197 31.4474 39.9827C31.4724 39.9007 31.5064 39.7957 31.5474 39.6827C31.5884 39.5697 31.6354 39.4417 31.6814 39.3187C31.8684 38.8277 32.0564 38.3787 31.8264 38.7777C32.1104 38.1697 31.8964 38.7587 32.1414 38.3107C32.487 37.5109 32.9336 36.7588 33.4704 36.0727C34.079 35.2974 34.7821 34.6014 35.5634 34.0007C35.5774 33.9677 35.2824 34.1557 35.6134 33.8677C35.9284 33.6757 36.2504 33.4957 36.5824 33.3337C36.7028 33.2523 36.819 33.1649 36.9304 33.0717C37.1211 32.9365 37.3298 32.8288 37.5504 32.7517C37.4504 32.7857 37.2894 32.8377 37.5354 32.7077C39.489 31.8394 41.5357 31.1982 43.6354 30.7967C45.7769 30.3603 47.9429 30.0541 50.1214 29.8797C49.5324 29.9167 49.9214 29.8637 50.3674 29.8097C50.0754 29.8357 50.3674 29.7637 50.3064 29.7457C50.9124 29.6967 51.5174 29.6517 52.1244 29.6087C52.4914 29.5334 52.8628 29.4813 53.2364 29.4527C53.5851 29.4291 53.9317 29.3807 54.2734 29.3077C54.1614 29.3247 54.0474 29.3367 53.9584 29.3487L53.6834 29.3697ZM31.7834 19.5987C31.6321 19.2567 31.4874 18.9007 31.3494 18.5307C31.4674 18.7817 31.6414 19.2037 31.7834 19.5987ZM31.2834 18.3387H31.2774C31.2624 18.2987 31.2484 18.2587 31.2344 18.2177L31.2834 18.3387ZM29.6484 9.33866L29.6424 9.31666C29.6074 8.84866 29.6184 9.01466 29.6494 9.33966L29.6484 9.33866ZM29.0704 5.37466C29.2024 6.41766 29.0524 5.83266 29.0864 6.01366C29.1343 6.60875 29.2231 7.19982 29.3524 7.78266C29.4629 8.28307 29.5348 8.79123 29.5674 9.30266C29.5904 9.95366 29.4464 9.34466 29.4194 9.49266C29.2864 8.64566 29.2964 8.18366 29.2284 7.60766L29.2804 8.32066C29.2093 7.94134 29.1589 7.55845 29.1294 7.17366C29.1294 7.24066 29.1354 7.34066 29.1454 7.46866C29.0041 6.20199 28.8671 4.85533 28.7344 3.42866C28.8324 3.81066 28.9544 4.51666 29.0714 5.37566L29.0704 5.37466ZM28.2894 1.23666C28.3044 1.26966 28.3334 1.17566 28.3524 1.10166C28.3278 1.38833 28.3034 1.67199 28.2794 1.95266C28.2764 1.72366 28.2794 1.46166 28.2904 1.23766L28.2894 1.23666ZM27.9644 5.01466C27.971 4.97698 27.9842 4.94075 28.0034 4.90766C27.9694 5.25666 27.9344 5.59966 27.9034 5.93766L27.8094 5.95066L27.8884 6.08166C27.8524 6.42299 27.8164 6.75866 27.7804 7.08866C27.7104 7.08866 27.6554 7.01966 27.6424 6.88866C27.6574 6.78766 27.8884 5.34866 27.9644 5.01466ZM27.0234 11.8087L27.1234 10.8787C27.1294 11.1287 27.1294 11.5717 27.1134 12.0657C27.0268 12.599 26.9364 13.1113 26.8424 13.6027C26.8544 13.1467 26.8824 12.6027 26.9484 12.0347L27.0234 11.8087ZM24.7774 19.9397C24.7723 19.9613 24.7693 19.9834 24.7684 20.0057C24.7524 20.0127 24.7044 20.1027 24.7784 19.9407L24.7774 19.9397ZM23.6284 21.9737C23.6114 22.0387 23.6634 22.0307 23.7284 22.0167C23.5758 22.228 23.4178 22.4327 23.2544 22.6307C23.3844 22.4147 23.5124 22.1957 23.6294 21.9747L23.6284 21.9737ZM8.60342 28.2217C8.76042 28.2107 8.63542 28.2527 8.42842 28.3077C8.51542 28.2907 8.59742 28.2737 8.66142 28.2597C8.85042 28.2437 8.92342 28.2467 8.92342 28.2597L8.27842 28.3467L8.42742 28.3077L8.10442 28.3697L7.83842 28.4037C7.62642 28.4117 7.44542 28.4157 7.31642 28.4227C7.74842 28.3607 8.17742 28.2907 8.60442 28.2237L8.60342 28.2217ZM29.2674 51.5217C29.2974 51.0927 29.3004 51.2137 29.3034 51.3337L29.2674 51.5217Z" fill="#1D1D1B"/>
</svg>
