<svg width="55" height="4" viewBox="0 0 55 4" fill="none" xmlns="http://www.w3.org/2000/svg">
<path d="M28.2874 0.84509C28.9911 0.872229 29.9026 0.973294 30.5995 0.953686C30.787 1.03301 30.9896 1.07347 31.1942 1.07248L31.2178 0.953733L31.4026 0.993451C31.4786 0.957891 31.2606 0.970273 31.394 0.925774L31.4636 1.00038C31.4786 0.957891 31.9399 0.977249 31.6296 0.887805L32.3513 0.897345C32.5108 0.891941 32.4434 0.994179 32.6198 0.971211C32.6556 0.937012 32.557 0.946348 32.571 0.903896C33.0998 0.824011 33.1804 1.14413 33.6733 1.09745L33.6315 1.08087C33.7151 1.11403 33.8748 1.11262 33.8764 1.12955C33.8127 1.24866 33.7885 1.06356 33.6374 1.13165C33.6493 1.2312 33.824 1.1893 33.8143 1.26559C33.9295 1.23071 33.9976 1.28937 34.0978 1.29697C34.2698 1.23617 34.5157 1.28282 34.6448 1.20748C34.7503 1.2821 34.8731 1.33046 35.0023 1.3483C35.1325 1.27192 34.9728 1.27233 35.149 1.24337L35.1769 1.3024C35.3209 1.29752 35.2987 1.27928 35.2935 1.25147C35.4481 1.25223 35.4212 1.33411 35.6147 1.30056L35.5095 1.24116C35.6423 1.26065 35.777 1.26581 35.9109 1.25655C35.9097 1.2226 35.8263 1.22343 35.7678 1.23141C35.8771 1.14674 35.9528 1.27312 36.0112 1.26514C35.9946 1.29069 35.8558 1.29939 35.9228 1.3581C36.0256 1.34962 36.1319 1.44197 36.2037 1.37457L36.0986 1.31616C36.3064 1.36609 36.2043 1.39154 36.4448 1.3744C36.4323 1.36982 36.438 1.35564 36.4334 1.3428C36.5825 1.42071 36.7791 1.35708 37.0006 1.35657L36.9588 1.34C37.0482 1.36196 37.0965 1.41529 37.1448 1.41166C37.0182 1.44294 37.0528 1.46075 37.0403 1.51515C37.208 1.42151 37.2939 1.6325 37.5672 1.58127C37.566 1.54732 37.4985 1.50563 37.4225 1.53919C37.3314 1.44232 37.3199 1.35275 37.1543 1.30339C37.2583 1.32885 37.3784 1.34477 37.3542 1.30261L37.3853 1.39551C37.4483 1.39938 37.4975 1.39171 37.5451 1.3961C37.5709 1.4552 37.4176 1.48938 37.5623 1.53046C37.7253 1.56392 37.6506 1.4375 37.6759 1.47963C37.8999 1.52102 37.7669 1.5765 37.9877 1.55503C37.9658 1.54678 37.924 1.5302 37.9057 1.53881C38.0611 1.50456 38.2868 1.56389 38.3344 1.45432C38.3119 1.4291 38.3076 1.39526 38.2491 1.40324L38.2497 1.42021C38.0808 1.33498 38.3918 1.44538 38.3397 1.34419C38.3264 1.40362 38.5477 1.39612 38.6442 1.38785L38.6127 1.45489C38.9367 1.66782 38.5975 1.31947 38.9182 1.35459C39.1261 1.40552 38.8405 1.37121 38.965 1.42297C39.0932 1.3881 39.227 1.37712 39.3595 1.39061C39.4162 1.3647 39.5325 1.33178 39.5432 1.25545C39.666 1.28927 39.9184 1.23075 39.9881 1.30735C39.7759 1.36551 39.7789 1.22148 39.5309 1.31484L39.5985 1.39051C39.7671 1.40842 39.9367 1.41503 40.1062 1.4103C40.082 1.42411 40.0713 1.44347 40.0864 1.45995C40.2639 1.51544 40.4485 1.54719 40.6349 1.55432C40.6675 1.48724 40.5297 1.49491 40.4263 1.48642C40.5801 1.43623 40.5861 1.487 40.8236 1.47296C40.8369 1.41353 40.6639 1.47237 40.638 1.41328L40.8997 1.4394C40.8991 1.43543 40.8989 1.43141 40.8992 1.42742C40.9358 1.52613 41.0989 1.42065 41.2589 1.45821C41.6385 1.46934 41.6939 1.6054 41.9031 1.69227C41.9599 1.66736 41.9776 1.64277 41.954 1.61658C41.8596 1.65776 41.8768 1.6192 41.8451 1.59629C41.9734 1.61093 42.1273 1.50776 42.0567 1.46517C42.2641 1.50013 41.9823 1.51567 42.1062 1.55046L42.3855 1.55299C42.3513 1.60313 42.2526 1.61047 42.3963 1.65258C42.509 1.66519 42.6225 1.66903 42.7357 1.66407C42.7132 1.63885 42.7876 1.58835 42.6681 1.5874C42.7087 1.57543 42.7515 1.57243 42.7934 1.57862C42.8354 1.58481 42.8754 1.60003 42.9105 1.62317C42.7357 1.66407 43.1947 1.67651 43.0634 1.75092L43.2382 1.71002C43.198 1.71138 43.1947 1.67551 43.1342 1.68356C43.185 1.60787 43.2763 1.70973 43.3416 1.71951C43.4029 1.70644 43.5626 1.70503 43.576 1.67559C43.6117 1.68703 43.6497 1.69043 43.687 1.68553C43.7243 1.68063 43.76 1.66756 43.7913 1.6473C43.8724 1.66555 43.7932 1.69822 43.8198 1.7233L44.0981 1.72587C44.1141 1.68335 44.1398 1.56553 44.0989 1.54793C44.2035 1.59136 44.1334 1.6757 44.2932 1.67628C44.2035 1.59036 44.5054 1.61912 44.375 1.51658C44.5354 1.46753 44.7065 1.46174 44.87 1.49982C44.957 1.56884 44.7145 1.53107 44.7211 1.59882C45.1233 1.63817 45.1414 1.82547 45.4395 1.80438L45.3628 1.81997C45.4586 1.83214 45.5504 1.86526 45.6311 1.91683C45.5827 1.83151 45.8458 1.69965 46.1488 1.72937C46.173 1.77253 45.9773 1.80315 46.0251 1.8715L46.2258 1.89169C46.241 1.88618 46.2188 1.87094 46.1926 1.85883C46.3722 1.89573 46.5313 1.7624 46.5802 1.86269L46.7667 1.74742L46.6933 1.79689C46.7174 1.83905 46.9191 1.85921 46.9599 1.87682C47.0241 1.89992 47.0927 1.90934 47.161 1.90444C47.2292 1.89954 47.2956 1.88043 47.3556 1.84842C47.3187 1.88166 47.2264 1.95275 47.3891 1.97623C47.3914 1.84021 47.7309 1.93966 47.7282 1.86479C47.7933 1.86958 47.9115 1.83259 47.9166 1.88839L47.9084 1.80371C47.9199 1.92226 48.1591 1.92715 48.3415 1.95596C48.3048 1.79428 48.5422 1.97715 48.6277 1.83532C48.6585 1.94522 48.9513 1.89232 48.9804 1.98629C49.121 1.99753 49.1101 1.89594 49.147 1.8627L49.2115 1.9065C49.374 1.86665 49.5402 1.84261 49.7076 1.83472L49.8504 1.93683L49.9066 1.89595C49.9292 1.92117 50.0504 1.94105 49.9733 1.97365L50.0525 1.97097C50.0563 2.07579 50.163 2.00421 50.3194 2.05588C50.357 2.04062 50.3478 2.01494 50.3173 1.99898C50.3957 2.00132 50.3639 1.94643 50.408 1.91295C50.3512 1.93786 50.6862 2.11343 50.4712 2.1507C50.4552 2.19322 50.5771 2.22907 50.6569 2.21437L50.7072 2.12271L50.7965 2.22664C50.9177 2.24552 50.9713 2.18873 51.0699 2.18139C50.9665 2.1709 50.8569 1.9887 51.112 2.00405C51.0175 1.98455 50.9265 1.95195 50.8416 1.90725C50.8951 1.90544 50.9227 1.89751 50.8397 1.85434C51.041 1.8925 50.9058 1.91508 51.1054 1.9363C51.0972 1.85162 51.154 1.8267 51.3295 1.80577L51.1976 1.86221C51.2031 1.87243 51.2117 1.88083 51.2221 1.88637C51.1719 1.89307 51.1579 1.90654 51.1467 1.9379C51.1858 1.93658 51.3755 2.0521 51.4097 2.00196C51.2081 2.12574 51.758 2.1171 51.6227 2.19465C51.6453 2.21988 51.7848 2.23014 51.7998 2.18866C51.6344 2.11929 51.9273 2.09638 51.8973 2.03642C51.959 2.06232 51.7655 2.09486 51.8481 2.12904C51.9293 2.1288 52.0087 2.10562 52.0765 2.06233L52.0357 2.04572L52.1891 2.01154C52.2143 2.05367 52.04 2.07956 52.1811 2.10477C52.2186 2.08751 52.3596 2.11172 52.3553 2.07788C52.2883 2.01918 52.3381 1.94253 52.2179 1.9266C52.3213 1.9351 52.6308 1.9466 52.5049 2.02484L52.6232 2.02083C52.5493 2.05632 52.3403 2.11837 52.5788 2.13128L52.5781 2.11431L52.7443 2.17765L52.8158 2.13325C52.8166 2.15421 52.841 2.17437 52.9017 2.17232C52.9173 2.1468 52.9756 2.13583 52.9693 2.10206C53.1497 2.10395 53.1213 2.14589 53.1479 2.16998C53.2356 2.174 53.2628 2.15509 53.2198 2.10657C53.31 2.09352 53.4668 2.0982 53.493 2.02335C53.6206 2.01903 53.4816 2.05172 53.5794 2.0764C53.576 1.98255 53.6432 1.9303 53.7061 1.84521C53.7783 1.76198 53.8291 1.66331 53.8544 1.55731C53.9971 1.62944 53.8762 1.5046 54.0044 1.46027C53.9848 1.48693 53.9497 1.43014 53.9178 1.40024C53.8858 1.37034 53.8587 1.36226 53.8485 1.45056C53.8506 1.41425 53.8493 1.37783 53.8446 1.34175C53.7952 1.31543 53.7937 1.36146 53.7837 1.39878C53.7738 1.4361 53.7501 1.46589 53.691 1.42691C53.6894 1.38199 53.7175 1.33405 53.727 1.28076C53.7372 1.25341 53.7371 1.22342 53.7267 1.19614C53.7163 1.16885 53.6962 1.14604 53.6701 1.13176C53.6186 1.21946 53.6267 1.04426 53.5671 1.13524C53.5562 1.17559 53.5865 1.18656 53.5989 1.21513L53.5711 1.21607C53.4958 1.15665 53.4993 1.13854 53.5248 1.10469C53.5504 1.07084 53.5978 1.04125 53.5606 0.982533C53.4252 0.912155 53.4015 0.999916 53.377 1.03473C53.3177 1.02973 53.2622 1.00473 53.2199 0.964087C53.3054 1.04915 53.4502 0.977278 53.424 0.909195C53.2946 0.976552 53.1409 0.828829 53.0924 0.771496C53.4115 0.760689 53.2921 0.822705 53.6091 0.81097C53.6231 0.858471 53.5653 0.912406 53.7085 0.968527C53.6652 0.882034 53.7535 0.931019 53.7878 0.939852C53.7205 0.959124 53.8507 1.02668 53.8538 1.08255C53.9234 1.09918 53.9099 0.924722 54.0344 1.06344L53.9804 1.10825L53.9232 1.15117C53.9693 1.20058 54.0064 1.08538 54.0352 1.22834C54.0679 1.13327 54.1636 1.21599 54.0769 1.01302C54.1275 1.04563 54.1671 1.092 54.1907 1.14631C54.2143 1.20063 54.2208 1.26048 54.2095 1.31839C54.1819 1.41353 54.1463 1.50633 54.1031 1.59587C54.1127 1.57755 54.1312 1.57692 54.1419 1.55857C54.1114 1.60877 54.0897 1.66356 54.0777 1.72067C54.0825 1.85345 54.1602 1.63791 54.1925 1.6748L54.1706 1.7825L54.134 1.88369C54.1343 1.88968 54.1343 1.89167 54.1416 1.89243C54.1031 1.93971 54.0621 1.97608 54.0862 2.01325C54.1454 1.99386 54.2021 1.96814 54.2555 1.93655C54.1991 2.00465 54.1316 2.06333 54.0556 2.11024C54.1135 2.11428 53.9887 2.31242 54.1224 2.19094L54.0849 2.23619C54.0601 2.26202 54.023 2.29027 53.9849 2.32054C53.9355 2.35702 53.8828 2.38924 53.8276 2.41683L53.8482 2.50209C53.7531 2.52231 53.7455 2.51057 53.8385 2.46044C53.7363 2.50356 53.6242 2.51977 53.5135 2.50743C53.396 2.50641 53.3072 2.50043 53.3555 2.58475C53.0536 2.52701 52.9732 2.55472 52.6428 2.50894C52.894 2.58739 52.3558 2.60762 52.622 2.64458C52.4656 2.68086 52.4335 2.589 52.3103 2.57318C52.1951 2.60807 52.2455 2.69232 52.3703 2.72507L52.2236 2.68407L52.2242 2.70104L52.0977 2.65035C51.9622 2.69292 52.0678 2.73532 51.9289 2.74302L51.9004 2.66702L51.8051 2.70824C51.841 2.67504 51.7589 2.65683 51.6586 2.64823L51.6593 2.6652L51.537 2.64635C51.6573 2.69625 51.4251 2.65914 51.4786 2.7143C51.3797 2.71431 51.2808 2.70662 51.1831 2.69132L51.2174 2.64119C50.9722 2.58652 51.2047 2.71758 51.0046 2.71336L51.019 2.6549C50.7284 2.74171 50.5337 2.57139 50.3205 2.63158C50.4408 2.6505 50.4081 2.71757 50.4065 2.70064C50.181 2.6894 49.9574 2.65372 49.7401 2.59427C49.6689 2.67765 49.6511 2.69724 49.4555 2.73185C49.315 2.72062 49.294 2.71133 49.2468 2.65996C49.1097 2.68759 48.8551 2.62625 48.846 2.68853C48.8153 2.63759 48.7225 2.69271 48.6488 2.64823L48.6321 2.67278L48.6465 2.61432C48.4005 2.7366 48.2402 2.52113 47.9916 2.62651L48.0334 2.64409L47.9294 2.61662C47.9128 2.64217 47.9536 2.65978 47.9579 2.69362L47.4795 2.68384L47.5749 2.64363C47.4715 2.63314 47.4085 2.5733 47.2922 2.60522C47.481 2.69878 47.1334 2.60261 47.1008 2.66968L47.2048 2.69714C47.0653 2.68687 47.0653 2.68687 47.0776 2.62749C46.8963 2.59964 46.9495 2.73178 46.7843 2.66541L46.9039 2.66735C46.9398 2.63415 46.8555 2.58203 46.7761 2.58073C46.7568 2.58937 46.7 2.61329 46.7601 2.62325C46.6179 2.59508 46.4013 2.61741 46.3396 2.59151C46.2618 2.60714 46.286 2.6503 46.3269 2.66791C46.0227 2.60425 46.1879 2.67262 45.8828 2.61099L45.884 2.64493L45.7793 2.6005L45.6272 2.66662L45.6823 2.62477C45.5902 2.60456 45.4955 2.59733 45.4013 2.60331L45.4474 2.65472C45.1647 2.61632 45.1172 2.72588 44.8495 2.64599C44.8312 2.6546 44.872 2.67221 44.894 2.68046C44.6454 2.58893 44.7032 2.76189 44.4542 2.65738C44.4692 2.67486 44.4411 2.6948 44.4509 2.70947L44.3373 2.67233L44.3397 2.74022L44.2484 2.63736L44.1766 2.70476L44.1332 2.67125C44.0079 2.79644 43.8373 2.69427 43.6685 2.78695L43.6995 2.70293C43.2806 2.51721 42.7333 2.77065 42.2259 2.67289L42.2335 2.7406L42.0243 2.65473C41.9107 2.70455 42.0904 2.71446 42.0545 2.74766C41.8303 2.70328 41.9632 2.6448 41.7015 2.61768C41.567 2.65922 41.7466 2.66913 41.8073 2.69506C41.5512 2.64162 41.2888 2.6226 41.0273 2.63852C41.027 2.62954 41.0132 2.61701 41.0264 2.61356C40.8407 2.59426 40.6539 2.5879 40.4672 2.59452C40.4684 2.62547 40.516 2.63185 40.5606 2.63934C40.4918 2.65295 40.4206 2.64881 40.3541 2.62734L40.4211 2.68704C40.2822 2.69175 40.0174 2.63475 39.9858 2.70179C40.0024 2.67624 39.9964 2.62546 39.88 2.62541C39.8126 2.72765 39.5556 2.57343 39.3647 2.62387C39.3873 2.6491 39.5277 2.65833 39.4876 2.65869C39.3945 2.66862 39.3007 2.64747 39.2216 2.59873L39.2468 2.64086L38.8013 2.57199C38.7338 2.67423 38.3799 2.54528 38.4094 2.62125C38.2497 2.62066 38.5439 2.57971 38.3424 2.56255C38.2882 2.60436 38.1601 2.53674 38.1677 2.60445L38.1886 2.61274L38.0482 2.6045L38.1361 2.67249C38.015 2.6556 37.927 2.58761 37.9252 2.5377C37.81 2.57258 37.647 2.53813 37.5935 2.59791L37.6363 2.61445C37.3137 2.5814 37.0995 2.78557 36.8469 2.66718C36.8276 2.67583 36.8303 2.69273 36.8694 2.69241L36.6695 2.69218L36.7167 2.74256L36.388 2.65874L36.3892 2.69268C36.1711 2.70007 35.8302 2.67763 35.5504 2.66112L35.5922 2.6777C35.2871 2.61906 35.2963 2.70371 35.0764 2.66218C35.0822 2.66961 35.0904 2.67496 35.0996 2.67739L34.8934 2.67238L34.9378 2.70586C34.7898 2.63091 34.5103 2.79431 34.6029 2.7342C34.5183 2.70108 34.3736 2.66 34.3494 2.61784C34.1296 2.61029 34.2953 2.66066 34.1592 2.68726C34.0007 2.69263 33.9727 2.6296 33.7573 2.65689L33.7585 2.69083C33.6552 2.68334 33.5955 2.65837 33.4551 2.65113L33.4969 2.66771C33.2686 2.59348 33.2108 2.76236 33.0323 2.61248C32.9364 2.63872 32.7541 2.61391 32.7628 2.68258C32.4777 2.63427 32.2563 2.61078 31.9728 2.5794C31.9274 2.68989 31.9118 2.57147 31.7399 2.63327L31.7532 2.57385C31.3529 2.56142 30.8923 2.70296 30.4513 2.67592L30.439 2.73531L30.3511 2.66932C29.8759 2.69341 29.2612 2.70624 28.882 2.70709C28.7192 2.64777 28.546 2.61969 28.3721 2.62441L28.393 2.63269C28.0346 2.5883 27.6725 2.57846 27.312 2.60334C27.3356 2.62853 27.2981 2.64579 27.3399 2.66237C27.251 2.59641 27.1203 2.65781 27.04 2.65954L27.1342 2.61536C27.0828 2.59554 27.0271 2.58887 26.9723 2.59597C26.9175 2.60308 26.8656 2.62373 26.8214 2.65594L26.6521 2.59171C26.641 2.59808 26.6238 2.60666 26.6221 2.61672L26.6066 2.58626L26.5177 2.66423C26.4759 2.64766 26.2526 2.62723 26.1829 2.55163C26.1663 2.57718 26.0094 2.59749 26.1315 2.61234L25.514 2.63326L25.6098 2.60503C25.6211 2.54567 25.4364 2.51095 25.3415 2.53615C25.4669 2.58388 25.3528 2.62073 25.2987 2.66454C25.2151 2.63239 25.371 2.61212 25.3266 2.57964C25.2036 2.53755 25.0717 2.5262 24.9431 2.54665L25.0058 2.57051C24.8628 2.54837 24.8026 2.65236 24.6572 2.64729C24.5308 2.5996 24.4376 2.64474 24.4627 2.54193C24.2796 2.52115 24.3931 2.61126 24.3337 2.62127C24.2724 2.60068 24.2073 2.5932 24.1428 2.59936C24.0783 2.60551 24.0159 2.62515 23.9599 2.65692C23.8587 2.50742 23.4683 2.71155 23.4308 2.58588L23.2819 2.6569C23.2746 2.62179 23.255 2.59024 23.2263 2.56768C23.1977 2.54511 23.1618 2.53294 23.1249 2.53327C23.0108 2.57012 23.0387 2.62915 23.0039 2.66331L22.9252 2.53804C22.2664 2.6723 21.3948 2.58988 20.6736 2.70826C20.3065 2.6639 19.9367 2.64303 19.5668 2.6458L19.6086 2.66138L19.2349 2.70003L19.5057 2.63888C19.4323 2.6194 19.3569 2.60787 19.2809 2.60451C18.7977 2.68807 18.3055 2.71213 17.8161 2.67612C17.4855 2.53639 17.6003 2.80737 17.2855 2.70609C17.3128 2.71916 17.3228 2.73981 17.347 2.75298C17.0562 2.72225 16.7678 2.6736 16.4834 2.60732C16.5256 2.74982 16.2628 2.60679 16.2954 2.68165L16.2655 2.62369C16.1906 2.66022 16.0139 2.67619 16.0401 2.71729L15.8892 2.64743L15.878 2.70779C15.6804 2.71448 15.2586 2.67479 15.1527 2.79832C14.5274 2.73893 13.8977 2.73751 13.2721 2.79406C13.1407 2.75247 13.0022 2.73611 12.8643 2.7459L12.7166 2.82087C12.5737 2.80272 12.4192 2.717 12.288 2.76542C12.2887 2.76951 12.2906 2.77331 12.2934 2.7764C12.2963 2.77948 12.3 2.78173 12.3041 2.78287C12.1634 2.79812 12.0211 2.78734 11.8846 2.7511C11.7261 2.75647 11.5772 2.80049 11.6228 2.86492C11.6042 2.74761 11.2868 2.8903 11.2868 2.8903L9.98158 2.9575C9.18653 2.99842 8.10431 3.04808 6.96057 3.07782C5.01306 3.21295 3.0563 3.14924 1.12251 2.88776C1.05254 2.83316 0.865954 2.80249 0.933423 2.73024C0.789612 2.71412 0.73057 2.82007 0.69864 2.76318C0.891681 2.71566 0.631462 2.61453 0.818171 2.53423L0.695232 2.52541C0.668029 2.48535 0.863612 2.56568 0.830041 2.49185L0.868915 2.59849C0.93847 2.59148 1.00352 2.56179 1.05342 2.51427C1.14859 2.55303 1.21356 2.69776 1.43246 2.62438L1.37153 2.62044C1.55266 2.61431 1.4791 2.54583 1.5155 2.52661L1.47536 2.52797L1.62567 2.4669C1.51176 2.50874 1.31515 2.42844 1.41825 2.42995C1.6322 2.39071 1.36364 2.45878 1.52257 2.46539C1.62549 2.46191 1.59271 2.41004 1.58634 2.37627L1.76645 2.37017C1.75844 2.31947 1.64706 2.37422 1.71837 2.32282L1.94769 2.36703C1.98422 2.23685 2.19685 2.41857 2.29538 2.29328C2.1307 2.26987 2.30824 2.24987 2.28001 2.20984L2.68036 2.19628C2.71779 2.17702 2.57604 2.16083 2.63492 2.16484C2.70876 2.12635 2.76053 2.19057 2.80063 2.18821C2.83334 2.15212 3.09909 2.1781 3.08468 2.09263C3.35426 2.02452 3.20379 2.19554 3.45411 2.13609C3.48517 2.08306 3.24788 2.13208 3.36326 2.07419L3.62632 2.08228C3.61083 2.05747 3.58788 2.03787 3.56056 2.02611C3.53324 2.01434 3.50285 2.01099 3.4735 2.01648C4.03547 1.84207 4.61596 1.72986 5.20392 1.68199C5.29329 1.617 5.13658 1.64329 5.07031 1.60556C5.54351 1.66949 5.72615 1.4474 6.12671 1.43983L6.13575 1.4905C6.74785 1.37653 7.3688 1.31303 7.99194 1.30068L7.91807 1.33817C8.02562 1.37451 8.13764 1.39693 8.25124 1.40485C8.26574 1.37837 8.17223 1.29957 8.35617 1.31433C8.31874 1.33359 8.24224 1.35518 8.26574 1.37837C9.11616 1.25139 9.97344 1.17229 10.8333 1.14147C12.0392 1.15059 13.3431 1.01747 14.5275 1.02932C14.3471 1.02844 14.4289 1.15261 14.5617 1.12112C14.9289 0.902776 15.2076 1.14422 15.5875 0.992416C16.236 0.947716 16.8871 0.953403 17.5346 1.00942L17.5458 0.94907C17.6406 0.920869 17.6679 0.961927 17.768 0.966532L17.7674 0.949561C18.0045 0.923538 18.293 0.980734 18.4289 0.950141L18.4386 1.01778C18.5799 1.02199 18.5108 0.964358 18.6564 1.00141L18.6552 0.967464L18.8254 1.02867C18.8067 0.910357 19.2237 1.01518 19.3381 0.959325C19.6052 0.998215 19.8755 1.01215 20.1454 1.00095C20.1958 0.940268 20.5357 0.937749 20.752 0.905435C21.1738 0.917132 21.7772 0.932678 22.3141 0.906493L22.3056 0.982749L22.4459 0.986993C22.4452 0.970021 22.4624 0.961442 22.4446 0.95305C22.5528 0.865425 22.7681 0.979076 22.8805 0.924291C22.8098 0.993654 22.7779 0.935764 22.7027 0.937311C22.5876 0.974195 22.6984 1.04741 22.8537 1.00916L22.8531 0.99219L22.9576 1.03263C22.9688 0.973276 23.0647 0.945041 23.077 0.885651C23.4927 0.936049 23.911 0.964922 24.33 0.972147C24.2802 0.905865 24.6727 0.988526 24.5758 0.872863C24.8617 0.916153 24.5297 0.966383 24.6604 1.04792C24.7396 1.04523 24.8243 1.07735 24.8382 1.0349C24.8001 1.0072 24.9026 0.964744 24.8353 0.954032L25.0262 0.962557C25.0444 0.953943 25.0026 0.937368 24.9807 0.930113C25.3705 0.995873 25.6704 0.852776 26.0201 0.921892C26.0464 0.963983 25.8814 0.932588 25.9077 0.975678C26.2592 1.06373 26.2141 0.901326 26.5461 0.963048L26.4781 0.90538C26.5258 0.935569 26.5797 0.955163 26.6361 0.962756C26.6925 0.97035 26.7499 0.965757 26.8043 0.949306C26.8348 0.881303 26.6559 0.893359 26.5722 0.857213C26.6916 0.853169 26.9942 0.873902 26.9027 0.934978C27.0457 0.95812 27.0981 0.897371 27.1747 0.878783C27.1753 0.895755 27.0414 0.924281 27.1249 0.955435C27.3684 0.924682 27.6138 0.911357 27.8592 0.915569C27.8586 0.898597 27.8732 0.873116 27.8574 0.864654C28.0449 0.97725 28.0239 0.825029 28.2874 0.84509Z" fill="#202020"/>
</svg>
